<svg width="34" height="33" viewBox="0 0 34 33" fill="none" xmlns="http://www.w3.org/2000/svg">
<path d="M30.7292 23.3645V27.4187C30.7308 27.795 30.6537 28.1676 30.5029 28.5124C30.3521 28.8573 30.131 29.1668 29.8536 29.4213C29.5763 29.6757 29.2489 29.8694 28.8923 29.99C28.5358 30.1106 28.158 30.1553 27.7832 30.1215C23.6248 29.6696 19.6303 28.2486 16.1207 25.9727C12.8555 23.8979 10.0872 21.1295 8.01238 17.8644C5.7285 14.3389 4.3072 10.325 3.86361 6.14782C3.82984 5.77412 3.87426 5.39747 3.99402 5.04188C4.11379 4.68628 4.30629 4.35951 4.55926 4.08238C4.81224 3.80526 5.12014 3.58384 5.46338 3.43223C5.80661 3.28062 6.17765 3.20214 6.55288 3.20179H10.607C11.2629 3.19534 11.8987 3.42758 12.396 3.85523C12.8932 4.28288 13.218 4.87677 13.3098 5.52618C13.4809 6.8236 13.7983 8.0975 14.2558 9.32358C14.4376 9.80728 14.477 10.333 14.3692 10.8383C14.2614 11.3437 14.011 11.8076 13.6477 12.175L11.9314 13.8913C13.8552 17.2745 16.6565 20.0758 20.0397 21.9996L21.756 20.2833C22.1234 19.92 22.5873 19.6696 23.0927 19.5618C23.5981 19.4541 24.1237 19.4934 24.6074 19.6752C25.8335 20.1327 27.1074 20.4501 28.4048 20.6212C29.0613 20.7138 29.6608 21.0445 30.0894 21.5503C30.518 22.0561 30.7457 22.7018 30.7292 23.3645Z" fill="#666666"/>
</svg>
