<svg width="34" height="33" viewBox="0 0 34 33" fill="none" xmlns="http://www.w3.org/2000/svg">
<path d="M22.2875 11.3035C24.438 11.3035 26.5004 12.1577 28.021 13.6783C29.5416 15.199 30.3959 17.2613 30.3959 19.4118V28.8715H24.9903V19.4118C24.9903 18.695 24.7056 18.0075 24.1987 17.5006C23.6918 16.9938 23.0044 16.709 22.2875 16.709C21.5707 16.709 20.8832 16.9938 20.3764 17.5006C19.8695 18.0075 19.5848 18.695 19.5848 19.4118V28.8715H14.1792V19.4118C14.1792 17.2613 15.0335 15.199 16.5541 13.6783C18.0747 12.1577 20.1371 11.3035 22.2875 11.3035Z" fill="white"/>
<path d="M8.77366 12.6548H3.3681V28.8715H8.77366V12.6548Z" fill="white"/>
<path d="M6.07088 8.60062C7.56358 8.60062 8.77366 7.39055 8.77366 5.89785C8.77366 4.40514 7.56358 3.19507 6.07088 3.19507C4.57818 3.19507 3.3681 4.40514 3.3681 5.89785C3.3681 7.39055 4.57818 8.60062 6.07088 8.60062Z" fill="white"/>
</svg>
