<svg width="157" height="45" viewBox="0 0 157 45" fill="none" xmlns="http://www.w3.org/2000/svg">
<path d="M64.0234 24.3918L61.1914 27.9318V35.2141H57.4154V11.6815H61.1914V22.9421H61.36L64.2257 19.0313L69.9909 11.6815H74.34L66.5857 21.5935L74.6434 35.2141H70.328L64.0234 24.3918ZM77.5634 32.2473H82.1823V20.7844H77.5634V17.8175H85.8571V22.4364H86.0594C86.2167 21.8295 86.4415 21.2452 86.7337 20.6833C87.0259 20.1213 87.3967 19.6381 87.8463 19.2335C88.2958 18.8065 88.8464 18.4693 89.4983 18.2221C90.1501 17.9524 90.9143 17.8175 91.7908 17.8175H93.8811V21.3238H90.4423C89.0937 21.3238 87.9923 21.7284 87.1383 22.5375C86.2842 23.3242 85.8571 24.3918 85.8571 25.7404V32.2473H92.1617V35.2141H77.5634V32.2473ZM105.702 35.6187C104.376 35.6187 103.184 35.4052 102.128 34.9781C101.072 34.5511 100.184 33.9442 99.4645 33.1575C98.7453 32.3709 98.1946 31.4269 97.8125 30.3255C97.4304 29.2017 97.2394 27.9431 97.2394 26.5495C97.2394 25.156 97.4304 23.8973 97.8125 22.7735C98.2171 21.6497 98.7677 20.6945 99.4645 19.9078C100.184 19.0987 101.049 18.4806 102.061 18.0535C103.072 17.6265 104.196 17.413 105.432 17.413C106.646 17.413 107.747 17.6265 108.736 18.0535C109.725 18.4581 110.568 19.0425 111.265 19.8067C111.961 20.5709 112.489 21.4812 112.849 22.5375C113.231 23.5939 113.422 24.7627 113.422 26.0438V27.4261H100.948V27.9993C100.948 29.3703 101.375 30.4941 102.229 31.3707C103.083 32.2248 104.263 32.6518 105.769 32.6518C106.893 32.6518 107.848 32.4158 108.635 31.9438C109.444 31.4493 110.096 30.7975 110.59 29.9884L112.883 32.0113C112.298 33.0227 111.399 33.8768 110.186 34.5735C108.994 35.2703 107.5 35.6187 105.702 35.6187ZM105.432 20.2113C104.78 20.2113 104.173 20.3236 103.611 20.5484C103.072 20.7732 102.6 21.0991 102.195 21.5261C101.813 21.9307 101.51 22.4139 101.285 22.9758C101.06 23.5377 100.948 24.1558 100.948 24.8301V25.0661H109.68V24.729C109.68 23.3579 109.287 22.2678 108.5 21.4587C107.736 20.6271 106.713 20.2113 105.432 20.2113ZM125.917 35.6187C124.591 35.6187 123.4 35.4052 122.343 34.9781C121.287 34.5511 120.399 33.9442 119.68 33.1575C118.961 32.3709 118.41 31.4269 118.028 30.3255C117.646 29.2017 117.455 27.9431 117.455 26.5495C117.455 25.156 117.646 23.8973 118.028 22.7735C118.432 21.6497 118.983 20.6945 119.68 19.9078C120.399 19.0987 121.264 18.4806 122.276 18.0535C123.287 17.6265 124.411 17.413 125.647 17.413C126.861 17.413 127.962 17.6265 128.951 18.0535C129.94 18.4581 130.783 19.0425 131.48 19.8067C132.177 20.5709 132.705 21.4812 133.064 22.5375C133.447 23.5939 133.638 24.7627 133.638 26.0438V27.4261H121.163V27.9993C121.163 29.3703 121.59 30.4941 122.444 31.3707C123.299 32.2248 124.479 32.6518 125.984 32.6518C127.108 32.6518 128.064 32.4158 128.85 31.9438C129.659 31.4493 130.311 30.7975 130.806 29.9884L133.098 32.0113C132.514 33.0227 131.615 33.8768 130.401 34.5735C129.21 35.2703 127.715 35.6187 125.917 35.6187ZM125.647 20.2113C124.996 20.2113 124.389 20.3236 123.827 20.5484C123.287 20.7732 122.815 21.0991 122.411 21.5261C122.029 21.9307 121.725 22.4139 121.5 22.9758C121.276 23.5377 121.163 24.1558 121.163 24.8301V25.0661H129.895V24.729C129.895 23.3579 129.502 22.2678 128.715 21.4587C127.951 20.6271 126.928 20.2113 125.647 20.2113ZM149.538 32.2473H149.335C148.818 33.3036 148.133 34.1353 147.279 34.7421C146.425 35.3265 145.357 35.6187 144.076 35.6187C142.031 35.6187 140.401 34.8545 139.187 33.3261C137.974 31.7977 137.367 29.5276 137.367 26.5158C137.367 23.504 137.974 21.2339 139.187 19.7055C140.401 18.1772 142.031 17.413 144.076 17.413C145.357 17.413 146.425 17.7164 147.279 18.3233C148.133 18.9076 148.818 19.728 149.335 20.7844H149.538V10.2655H153.212V35.2141H149.538V32.2473ZM145.593 32.6181C146.132 32.6181 146.638 32.5507 147.11 32.4158C147.582 32.281 147.998 32.0787 148.358 31.809C148.717 31.5393 148.998 31.2133 149.2 30.8313C149.425 30.4267 149.538 29.9547 149.538 29.4153V23.6164C149.538 23.077 149.425 22.6162 149.2 22.2341C148.998 21.8295 148.717 21.4924 148.358 21.2227C147.998 20.953 147.582 20.7507 147.11 20.6158C146.638 20.481 146.132 20.4135 145.593 20.4135C144.2 20.4135 143.121 20.8406 142.356 21.6947C141.615 22.5488 141.244 23.6838 141.244 25.0998V27.9318C141.244 29.3478 141.615 30.4829 142.356 31.337C143.121 32.1911 144.2 32.6181 145.593 32.6181Z" fill="black"/>
<rect y="1.42847" width="42.1429" height="42.1429" rx="8.42857" fill="black"/>
<path d="M13.6397 31.8812C12.8639 31.8812 12.235 31.2522 12.235 30.4764V14.3886C12.235 13.6128 12.8639 12.9839 13.6397 12.9839H15.117C15.8929 12.9839 16.5218 13.6128 16.5218 14.3886V30.4764C16.5218 31.2522 15.8929 31.8812 15.117 31.8812H13.6397ZM17.9098 23.1402C17.7986 22.8395 17.7936 22.5098 17.8956 22.2058L20.6696 13.9416C20.8616 13.3694 21.3977 12.9839 22.0013 12.9839H23.2695C24.2279 12.9839 24.905 13.9225 24.6025 14.8319L22.1485 22.2118C22.0487 22.5121 22.0531 22.8373 22.1612 23.1347L24.6541 29.9967C24.9869 30.9128 24.3084 31.8812 23.3337 31.8812H22.1212C21.5334 31.8812 21.0077 31.5151 20.8037 30.9637L17.9098 23.1402Z" fill="white"/>
<path d="M26.7068 29.9914C26.7068 29.1816 27.102 28.5786 27.8925 28.1827C28.2371 28.0207 28.6019 27.9397 28.987 27.9397C29.8991 27.9397 30.568 28.2907 30.9936 28.9926C31.176 29.2985 31.2672 29.6315 31.2672 29.9914C31.2672 30.8193 30.8619 31.4132 30.0511 31.7732C29.7066 31.9352 29.3519 32.0161 28.987 32.0161C28.0547 32.0161 27.3858 31.6562 26.9804 30.9363C26.798 30.6303 26.7068 30.3154 26.7068 29.9914Z" fill="white"/>
</svg>
