<svg width="33" height="33" viewBox="0 0 33 33" fill="none" xmlns="http://www.w3.org/2000/svg">
<path d="M31.3653 4.54655C30.0712 5.45938 28.6384 6.15755 27.122 6.61417C26.3081 5.67835 25.2264 5.01506 24.0233 4.71402C22.8201 4.41298 21.5536 4.4887 20.3949 4.93096C19.2362 5.37321 18.2412 6.16065 17.5446 7.18678C16.8481 8.21291 16.4834 9.42822 16.5 10.6683V12.0197C14.1252 12.0813 11.7719 11.5546 9.64987 10.4865C7.52783 9.41841 5.70287 7.84209 4.33754 5.89794C4.33754 5.89794 -1.06801 18.0604 11.0945 23.466C8.31134 25.3552 4.99588 26.3025 1.63477 26.1688C13.7973 32.9257 28.6625 26.1688 28.6625 10.6278C28.6613 10.2514 28.6251 9.87588 28.5544 9.50615C29.9337 8.14596 30.907 6.42864 31.3653 4.54655Z" fill="white"/>
</svg>
